<?xml version="1.0" encoding="UTF-8" standalone="no"?>
<!-- Created with Inkscape (http://www.inkscape.org/) -->

<svg
   width="210mm"
   height="297mm"
   viewBox="0 0 190.90909 270"
   version="1.1"
   id="svg1"
   xml:space="preserve"
   inkscape:export-filename="logo.svg"
   inkscape:export-xdpi="17.104378"
   inkscape:export-ydpi="17.104378"
   xmlns:inkscape="http://www.inkscape.org/namespaces/inkscape"
   xmlns:sodipodi="http://sodipodi.sourceforge.net/DTD/sodipodi-0.dtd"
   xmlns="http://www.w3.org/2000/svg"
   xmlns:svg="http://www.w3.org/2000/svg"><sodipodi:namedview
     id="namedview1"
     pagecolor="#ffffff"
     bordercolor="#000000"
     borderopacity="0.25"
     inkscape:showpageshadow="2"
     inkscape:pageopacity="0.0"
     inkscape:pagecheckerboard="0"
     inkscape:deskcolor="#d1d1d1"
     inkscape:document-units="mm"><inkscape:page
       x="0"
       y="0"
       width="190.90909"
       height="270"
       id="page2"
       margin="0"
       bleed="0" /></sodipodi:namedview><defs
     id="defs1" /><path
     style="fill:#51a5f2;fill-opacity:1;fill-rule:evenodd;stroke-width:1.17602"
     d="m 98.574424,268.71362 c -0.58578,-0.16389 -1.66765,-0.86938 -2.40414,-1.56775 -0.73649,-0.69837 -1.91113,-2.08562 -2.61032,-3.08277 -0.6992,-0.99716 -2.01689,-3.24075 -2.92821,-4.98577 -0.91132,-1.74502 -2.4042,-5.05889 -3.31749,-7.36418 -0.91329,-2.30527 -2.42987,-6.72446 -3.37014,-9.82045 -0.94029,-3.09597 -2.22216,-7.80465 -2.84862,-10.46374 -0.62645,-2.65907 -1.56861,-7.07827 -2.0937,-9.82044 -0.52509,-2.74218 -1.17924,-6.48152 -1.45366,-8.30962 -0.27443,-1.82812 -0.72179,-5.15952 -0.99413,-7.40312 -0.27234,-2.24359 -0.63313,-8.83841 -0.80176,-14.65515 -0.16863,-5.81671 -0.22729,-21.79385 -0.13036,-35.50471 0.0969,-13.71087 0.31587,-29.75599 0.48655,-35.65581 0.17068,-5.89983 0.45395,-13.44646 0.62949,-16.77031 0.17554,-3.323827 0.53655,-9.170787 0.80225,-12.993209 0.26569,-3.822423 0.77445,-9.737361 1.13057,-13.144302 0.35612,-3.406943 1.08344,-9.043498 1.61626,-12.525678 0.53283,-3.482182 1.45875,-8.62206 2.05762,-11.421952 0.59887,-2.799894 1.60137,-6.928008 2.22779,-9.173586 0.62641,-2.24558 1.72556,-5.740148 2.44257,-7.765708 0.71699,-2.025561 1.93165,-5.130863 2.69922,-6.900673 0.76758,-1.769812 2.0726,-4.489324 2.90008,-6.043359 0.82745,-1.554036 2.2785,-4.023902 3.22452,-5.488591 0.94605,-1.464689 2.57056,-3.716714 3.61005,-5.004499 1.039466,-1.287785 2.661076,-3.1396831 3.603546,-4.1153251 0.94248,-0.975643 3.06701,-2.832911 4.72114,-4.127271 l 3.00756,-2.353369 0.99756,0.668579 c 0.54865,0.36771 2.6256,2.155161 4.6154,3.972101 1.98982,1.816945 4.60899,4.5375781 5.82039,6.0458531 1.2114,1.508273 3.03381,4.034084 4.04983,5.612911 1.016,1.578828 2.66792,4.5023 3.67096,6.496608 1.00301,1.994309 2.48802,5.296839 3.29999,7.338955 0.81197,2.042117 2.2036,6.121383 3.0925,9.065036 0.8889,2.943654 2.18603,8.00362 2.88253,11.24437 0.69649,3.24075 1.69635,8.747759 2.22194,12.237798 0.52558,3.490038 1.24938,9.133025 1.60847,12.539968 0.35908,3.406937 0.86607,9.185904 1.12662,12.842134 0.26056,3.656232 0.61823,9.571172 0.79486,13.144289 0.1766,3.57314 0.48197,13.22739 0.67854,21.45391 0.21172,8.85982 0.29648,27.52187 0.20789,45.77843 -0.12351,25.45724 -0.23692,31.50476 -0.65165,34.74932 -0.27617,2.16049 -0.80752,5.89983 -1.18079,8.30961 -0.37324,2.40979 -1.03599,6.21709 -1.47275,8.46069 -0.43675,2.2436 -1.31065,6.25489 -1.94198,8.91396 -0.63132,2.65907 -1.90844,7.35681 -2.83805,10.43939 -0.9296,3.0826 -2.43657,7.50179 -3.34882,9.82046 -0.91225,2.31866 -2.57731,5.98343 -3.70013,8.14393 -1.12282,2.1605 -2.73458,4.73204 -3.58167,5.71454 -0.8471,0.98251 -2.09404,2.20628 -2.77097,2.71952 l -1.23075,0.93315 -11.74577,0.0569 c -6.97775,0.0339 -12.178096,-0.0641 -12.810836,-0.24107 z m 23.864956,-5.17932 c 0.5377,-0.54012 1.44801,-1.64165 2.02295,-2.44785 0.57492,-0.80621 1.80695,-2.98181 2.73784,-4.83469 0.9309,-1.85288 2.34261,-5.06856 3.13714,-7.14597 0.79453,-2.0774 2.17663,-6.22466 3.07132,-9.21611 0.8947,-2.99148 2.20209,-7.8866 2.9053,-10.87805 0.70319,-2.99146 1.77695,-8.22653 2.38611,-11.63346 0.60917,-3.40696 1.36961,-8.03011 1.68986,-10.27371 0.53996,-3.78295 0.58207,-7.2182 0.57988,-47.28927 -9.9e-4,-30.1563 -0.1252,-45.81164 -0.40897,-51.82179 -0.22366,-4.73647 -0.62695,-11.807197 -0.89622,-15.712717 -0.26929,-3.905523 -0.84413,-10.426991 -1.27745,-14.492154 -0.43332,-4.065164 -1.0817,-9.300222 -1.44086,-11.633462 -0.35915,-2.333241 -1.08167,-6.485852 -1.60557,-9.228025 -0.52391,-2.742174 -1.53557,-7.19751 -2.24814,-9.900747 -0.71256,-2.703238 -1.87539,-6.578541 -2.58405,-8.611785 -0.70865,-2.033244 -1.91643,-5.146557 -2.68394,-6.918474 -0.7675,-1.771916 -1.99292,-4.342329 -2.72317,-5.712025 -0.73023,-1.369696 -2.10785,-3.679755 -3.06136,-5.133462 -0.9535,-1.453708 -2.72856,-3.846404 -3.94457,-5.317104 -1.21602,-1.470697 -3.36119,-3.74201 -4.76706,-5.047362 l -2.55614,-2.3733631 -2.63449,2.5879191 c -1.44898,1.423355 -3.36503,3.443199 -4.25793,4.488539 -0.89289,1.045341 -2.48076,3.1244 -3.52858,4.620131 -1.047856,1.495731 -2.958696,4.759145 -4.246326,7.252028 -1.28763,2.492888 -2.93142,6.066359 -3.65284,7.941052 -0.72144,1.874691 -1.88539,5.32292 -2.58658,7.66273 -0.70118,2.339812 -1.77747,6.458179 -2.39176,9.151929 -0.61429,2.69375 -1.47541,6.996126 -1.91362,9.560837 -0.43819,2.564709 -1.08399,6.906704 -1.43508,9.648878 -0.35111,2.742173 -0.85789,7.229365 -1.12621,9.971536 -0.26832,2.74218 -0.70129,8.181198 -0.96215,12.086724 -0.26085,3.90551 -0.66035,10.636297 -0.88779,14.957297 -0.29753,5.65292 -0.4135,20.14469 -0.4135,51.67069 0,40.36823 0.0449,44.12331 0.57134,47.74253 0.31423,2.16049 0.99963,6.33819 1.5231,9.28376 0.52348,2.94559 1.39395,7.36478 1.93439,9.82046 0.54044,2.45569 1.61749,6.80392 2.39343,9.66274 0.77594,2.85882 2.19136,7.42763 3.14538,10.15294 0.95403,2.72529 2.41678,6.43717 3.25054,8.24862 0.83377,1.81143 2.09806,4.2374 2.80957,5.39103 0.71151,1.15364 1.86625,2.68338 2.5661,3.39939 l 1.272446,1.30187 h 10.63002 10.63001 z m -14.33373,-5.6424 c -0.79393,-0.74876 -0.93658,-1.12149 -0.93658,-2.44756 0,-1.37612 0.13106,-1.68789 1.0894,-2.59167 0.89022,-0.83955 1.3334,-1.02736 2.42414,-1.02736 0.7341,0 1.64966,0.15189 2.03459,0.33752 0.38492,0.18564 0.94896,0.62756 1.25344,0.98205 0.35131,0.409 0.55619,1.18001 0.56072,2.11002 0.007,1.26823 -0.13952,1.60382 -1.08227,2.49289 -0.95834,0.90378 -1.28893,1.02736 -2.74811,1.02736 -1.40613,0 -1.80137,-0.13451 -2.59533,-0.88325 z m -7.62944,-15.20718 c -0.696696,-0.87251 -1.909276,-2.81015 -2.694636,-4.30589 -0.78536,-1.49574 -1.93881,-4.01128 -2.56322,-5.5901 -0.62441,-1.57884 -1.64376,-4.50231 -2.26523,-6.49661 -0.62146,-1.99432 -1.56036,-5.25773 -2.08644,-7.25203 -0.52608,-1.99432 -1.39098,-5.73364 -1.92201,-8.30962 -0.53104,-2.57599 -1.25199,-6.58726 -1.60211,-8.91395 -0.35012,-2.32668 -0.81426,-5.86206 -1.03142,-7.85637 -0.27879,-2.56018 -0.40283,-11.57529 -0.42201,-30.67003 -0.0149,-14.87422 0.0837,-27.41797 0.21924,-27.87499 l 0.2464,-0.83095 H 110.8256 c 22.01864,0 24.49033,0.0479 24.66532,0.47795 0.10698,0.26288 0.18999,11.58285 0.18445,25.15547 -0.007,13.57264 -0.14061,27.46501 -0.30021,30.87196 -0.17563,3.74863 -0.62269,8.28232 -1.13226,11.48238 -0.46313,2.90836 -1.26456,7.25054 -1.78097,9.64928 -0.5164,2.39873 -1.45085,6.20606 -2.07655,8.46071 -0.6257,2.25464 -1.92722,6.33726 -2.89229,9.07251 -0.96506,2.73522 -2.47761,6.40046 -3.36123,8.14491 -0.8836,1.74447 -2.19558,3.89175 -2.91547,4.77175 l -1.3089,1.60001 h -9.08229 -9.08229 z m 2.92445,-11.07688 c 1.45584,-0.98188 7.54644,-5.17463 13.53464,-9.31724 10.54574,-7.29548 10.90053,-7.57391 11.29836,-8.8662 0.2259,-0.7338 0.77318,-2.95097 1.21618,-4.92707 0.443,-1.97609 0.76564,-3.62796 0.71695,-3.67084 -0.0487,-0.0429 -6.88151,4.63338 -15.18405,10.39168 -8.30256,5.75827 -15.610506,10.87755 -16.239946,11.37612 l -1.14441,0.9065 1.46711,2.94613 c 0.80692,1.62038 1.516866,2.94614 1.577646,2.94614 0.0608,0 1.30168,-0.80335 2.75752,-1.78522 z m 0.88475,-23.73412 c 4.84617,-3.34221 13.1007,-9.05496 18.34337,-12.69501 l 9.53215,-6.61829 v -8.58162 -8.58163 l -1.52194,1.03591 c -0.83707,0.56976 -10.15345,6.9988 -20.70308,14.28677 l -19.181126,13.25088 0.20645,1.65649 c 0.11359,0.91107 0.64304,3.77393 1.17667,6.36191 0.53363,2.58799 1.11461,5.22573 1.29108,5.86161 l 0.32082,1.15618 0.86219,-0.52825 c 0.47422,-0.29053 4.82725,-3.26277 9.673416,-6.60495 z m 7.60316,-31.65293 20.25927,-13.98826 0.007,-10.34926 0.007,-10.34925 h -7.3204 -7.32042 l -14.13407,9.74493 -14.134066,9.7449 -0.0128,10.60337 c -0.007,5.83188 0.0817,12.66455 0.19736,15.18375 l 0.21022,4.58037 0.99131,-0.59116 c 0.54522,-0.32513 10.107966,-6.88586 21.250576,-14.57939 z M 90.620754,99.608263 c -0.69465,-0.7059 -0.79359,-1.03385 -0.65726,-2.1788 0.1028,-0.86316 0.39814,-1.52934 0.82146,-1.85261 0.36354,-0.27763 1.34451,-0.60143 2.17994,-0.71957 1.45586,-0.2059 1.74682,-0.43649 7.00401,-5.550516 3.016776,-2.934634 6.310766,-6.191794 7.319936,-7.238131 l 1.83488,-1.90244 -0.86165,-0.968159 c -0.47391,-0.532488 -3.1125,-3.167441 -5.86354,-5.855447 -3.090406,-3.019605 -5.307996,-4.946545 -5.802896,-5.042352 -0.44058,-0.0853 -1.19491,-0.233556 -1.67632,-0.329486 -0.53296,-0.106197 -1.06556,-0.521395 -1.36174,-1.061543 -0.26754,-0.487916 -0.48644,-1.172576 -0.48644,-1.521468 0,-0.34889 0.2119,-1.020779 0.47088,-1.493085 0.25898,-0.472306 0.89797,-0.999149 1.41998,-1.170764 0.52202,-0.171615 1.28337,-0.2359 1.69189,-0.142855 0.40852,0.09304 1.14807,0.524064 1.64346,0.957823 0.7758,0.679294 0.8895,0.987657 0.81993,2.223791 l -0.0808,1.435138 5.863886,5.751682 5.86389,5.751681 5.9723,-5.807834 c 5.64301,-5.487618 5.96681,-5.865379 5.87255,-6.851541 -0.0549,-0.574038 0.0666,-1.422404 0.26987,-1.885257 0.20328,-0.462852 0.83343,-1.049115 1.40032,-1.302803 0.56971,-0.254961 1.38046,-0.381253 1.81277,-0.282381 0.43016,0.09838 1.1786,0.525805 1.66322,0.949836 0.62943,0.55073 0.88113,1.065557 0.88113,1.802235 0,0.769928 -0.27607,1.291627 -1.08938,2.058642 -0.78132,0.736837 -1.377,1.027371 -2.10644,1.027371 -0.80024,0 -1.42952,0.370412 -2.95182,1.737465 -1.06411,0.955606 -3.80972,3.607449 -6.10135,5.892984 l -4.1666,4.155517 7.41016,7.217496 c 7.1384,6.952801 7.46441,7.225151 8.88957,7.426711 0.81368,0.11507 1.6826,0.28274 1.93092,0.3726 0.24831,0.0899 0.67519,0.57137 0.94861,1.07 0.32456,0.59189 0.42655,1.26137 0.2938,1.92866 -0.11177,0.56214 -0.51222,1.29349 -0.88978,1.62523 -0.46835,0.411477 -1.1303,0.603127 -2.0832,0.603127 -1.09882,0 -1.56431,-0.17053 -2.18245,-0.799527 -0.55068,-0.56038 -0.78572,-1.14697 -0.78572,-1.9609 0,-0.97394 -0.26812,-1.44225 -1.66152,-2.90203 -0.91383,-0.95736 -4.25824,-4.294376 -7.43202,-7.415607 l -5.77051,-5.674948 -2.3734,2.200026 c -1.30536,1.210004 -4.66548,4.485727 -7.46695,7.279379 -4.972236,4.95841 -5.093556,5.11068 -5.093556,6.39421 0,1.09727 -0.16312,1.44429 -0.9858,2.09713 -0.69837,0.554177 -1.3568,0.782267 -2.25817,0.782267 -0.97616,0 -1.46269,-0.19342 -2.09008,-0.830947 z m 18.394706,-68.8385 c -0.4824,-0.246848 -1.09519,-0.846541 -1.36173,-1.332652 -0.26656,-0.486111 -0.48466,-1.379519 -0.48466,-1.985351 0,-0.605832 0.24012,-1.48484 0.53358,-1.953348 0.29346,-0.468512 0.87697,-0.999399 1.2967,-1.179752 0.41973,-0.180354 1.26816,-0.327917 1.88542,-0.327917 0.61725,0 1.5196,0.193766 2.0052,0.430591 0.48561,0.236825 1.05519,0.787125 1.26573,1.22289 0.21052,0.435762 0.38277,1.268566 0.38277,1.850674 0,0.582106 -0.2187,1.457247 -0.48603,1.944758 -0.26732,0.487512 -0.90898,1.092648 -1.42592,1.344751 -0.51694,0.2521 -1.34356,0.452921 -1.83692,0.446268 -0.49339,-0.0066 -1.29174,-0.214064 -1.77414,-0.460912 z M 19.180744,229.8935 c -0.54867,-0.25527 -2.84576,-2.12185 -5.10466,-4.14794 -2.2589,-2.02609 -6.0273696,-5.64253 -8.3743796,-8.03652 l -4.26728,-4.35274 v -3.22835 c 0,-3.05994 0.046,-3.2844 0.88112,-4.30269 0.48463,-0.59088 2.32296,-2.09163 4.08521,-3.33499 1.76224,-1.24338 5.5110096,-3.68302 8.3306096,-5.42144 2.81959,-1.73842 6.71255,-4.04272 8.65102,-5.12065 1.93847,-1.07794 5.47097,-2.92436 7.84999,-4.10313 2.37903,-1.1788 6.95393,-3.3073 10.16643,-4.73 3.21251,-1.42272 6.18909,-2.66917 6.61464,-2.76991 0.63855,-0.15114 1.1715,0.17076 3.0504,1.84232 1.25218,1.11399 2.27669,2.16294 2.27669,2.331 0,0.16805 -0.95467,2.29319 -2.1215,4.72254 -1.16681,2.42934 -3.41963,6.86296 -5.00624,9.85248 -1.5866,2.98953 -3.61209,6.66087 -4.50108,8.15853 -0.88899,1.49767 -3.06067,4.89865 -4.82595,7.55773 -1.76528,2.65906 -4.41374,6.49336 -5.88547,8.52063 -1.47173,2.02728 -3.3403,4.23752 -4.15237,4.91165 -0.86352,0.71681 -2.14629,1.41325 -3.08988,1.6775 -0.88736,0.24852 -2.05583,0.44876 -2.59657,0.44498 -0.54074,-0.003 -1.43208,-0.21573 -1.98073,-0.471 z m 15.56852,-29.28248 14.90568,-14.04764 -1.6016,-1.49952 -1.60158,-1.49952 -14.39041,13.82278 c -7.91473,7.60253 -14.60537,14.25081 -14.86808,14.77396 -0.43051,0.85729 -0.42463,1.02751 0.0596,1.72436 0.39133,0.56326 0.81601,0.77321 1.564,0.77321 0.92697,0 2.47578,-1.36559 15.93246,-14.04763 z m 18.11697,-20.09134 -2.23556,-2.12458 3.83692,-3.69984 c 2.11031,-2.03493 6.86404,-6.58934 10.56386,-10.12093 3.69982,-3.53159 6.90844,-6.42107 7.13026,-6.42107 0.30447,0 0.40331,1.01203 0.40331,4.12923 v 4.1292 l -8.41071,8.03305 c -4.62589,4.41816 -8.55512,8.07048 -8.73162,8.11627 -0.17649,0.0458 -1.3269,-0.87281 -2.55646,-2.04133 z M 147.76322,94.222883 c -0.0973,-0.32034 -0.26776,-2.21415 -0.3787,-4.20845 l -0.20175,-3.626021 7.63725,-7.252033 c 4.2005,-3.988616 10.99148,-10.480382 15.09111,-14.426146 l 7.45385,-7.174118 -0.81428,-1.1301 c -0.56328,-0.781759 -0.81428,-1.534774 -0.81428,-2.442956 0,-1.048161 0.18884,-1.490936 0.93659,-2.196115 0.7249,-0.683643 1.22803,-0.88326 2.22621,-0.88326 1.07672,0 1.59657,0.243986 3.14862,1.477836 1.02244,0.812809 2.58928,2.206558 3.48185,3.09722 0.89256,0.890663 2.08208,2.134024 2.64336,2.763029 0.77012,0.863032 1.02052,1.436461 1.02052,2.337034 0,0.891632 -0.23642,1.442913 -0.93495,2.180202 -0.78351,0.826982 -1.15976,0.986738 -2.32296,0.986344 -0.93726,-3.15e-4 -1.7261,-0.227735 -2.42911,-0.700291 l -1.04108,-0.699825 -1.4926,1.153449 c -0.82093,0.634397 -8.58912,7.94242 -17.26263,16.240047 -12.63232,12.084884 -15.80524,14.970724 -15.94702,14.504154 z"
     id="path1" /></svg>
