<svg width="152" height="151" viewBox="0 0 152 151" fill="none" xmlns="http://www.w3.org/2000/svg">
<g filter="url(#filter0_d_93_12)">
<path d="M100.324 133.489C100.901 132.658 101.374 131.861 101.374 131.718C101.374 131.046 99.9446 129.602 98.121 128.432C91.5069 124.188 69.834 115.947 51.4969 110.703L43.5346 108.427L46.6113 108.262L49.688 108.097L50.8817 106.508L52.0753 104.919L50.9598 103.881C50.3463 103.311 48.9448 101.909 47.8454 100.766C46.746 99.6235 45.6953 98.6885 45.5104 98.6885C45.3255 98.6885 45.0231 99.0532 44.8382 99.4989C44.5677 100.151 44.6344 100.761 45.1803 102.626C45.9388 105.218 45.8622 105.835 44.7435 106.143C42.964 106.634 40.6247 104.362 38.17 99.759C33.8362 91.6322 32.1479 84.8022 32.153 75.4162C32.1564 69.66 32.4566 67.3117 33.7132 63.2223C34.494 60.6814 33.9821 61.2652 32.4059 64.7132C29.6803 70.6756 28.5728 76.2089 28.5789 83.8338C28.5858 92.3602 30.6799 101.549 33.591 105.826C34.6902 107.441 34.8077 107.518 36.208 107.553C38.6432 107.613 43.226 109.054 56.427 113.909C84.2235 124.133 95.0251 128.635 94.6798 129.852C94.4807 130.554 92.499 131.368 90.9877 131.368C87.3767 131.368 84.8365 130.374 78.3882 126.43C76.1257 125.046 74.0532 124.099 71.3273 123.201C71.0795 123.12 71.467 123.44 72.1886 123.913C75.8289 126.298 76.5318 127.564 75.0574 129.083C74.3982 129.762 73.9997 129.878 72.4283 129.848C70.0114 129.803 66.454 128.692 62.9745 126.896C60.0902 125.407 56.8709 123.081 50.8959 118.169C46.4095 114.48 45.4792 113.773 45.3302 113.936C45.2627 114.01 45.9465 115.151 46.8498 116.47C47.7532 117.789 48.4922 119.007 48.4922 119.177C48.4922 119.79 47.0142 119.464 45.2968 118.471C40.5818 115.746 34.8348 110.053 31.3011 104.605C20.5441 88.022 18.8891 66.2857 27.0175 48.3476C33.8206 33.3344 48.201 21.897 65.3002 17.8994C68.7246 17.0989 69.6717 17.0173 75.5338 17.0182C81.1038 17.0182 82.4234 17.1214 85.1124 17.7612C94.7351 20.0507 102.472 24.3025 108.013 30.3454C111.491 34.1388 114.61 39.3567 115.79 43.353C116.663 46.3128 117.059 41.5974 116.231 38.1033C115.975 37.0223 115.434 35.4868 115.029 34.6912C114.625 33.8957 114.293 33.1614 114.293 33.0595C114.293 32.5573 116.314 35.0887 117.615 37.2212C119.726 40.6804 120.33 43.0625 120.52 48.6777C120.745 55.3642 119.825 60.0314 117.524 63.8786L116.547 65.513L116.475 64.0276C116.046 55.1293 114.734 49.7951 111.522 43.9009C110.59 42.1891 108.891 39.93 108.537 39.93C108.368 39.93 108.715 40.9013 109.309 42.0885C110.859 45.1876 111.501 47.5432 111.898 51.5911C112.234 55.024 112.146 56.7653 111.635 56.7653C111.501 56.7653 111.067 56.0032 110.669 55.0718C109.848 53.1438 106.586 49.6453 104.022 47.9423C101.367 46.1786 96.3177 44.2736 92.2889 43.5155C87.7182 42.6554 80.5396 42.76 78.8658 43.7109C78.3245 44.0185 77.8132 44.1948 77.7295 44.1029C77.3907 43.7306 79.3435 40.4715 80.9881 38.6646C84.0499 35.3008 87.1148 34.1314 92.1925 34.3899C94.3981 34.5022 94.9706 34.4573 94.3127 34.2237C93.8169 34.0476 91.8564 33.8854 89.956 33.8633C87.0817 33.8299 86.1722 33.9486 84.5477 34.5688C78.6249 36.8302 75.302 40.8412 74.9948 46.0999C74.9121 47.5157 75.0089 49.1175 75.2294 49.9829C76.0758 53.304 79.2439 55.6805 84.0094 56.5694C86.9826 57.124 87.4313 57.339 89.1251 59.0202C90.2575 60.1442 90.3282 60.1717 90.117 59.4056C89.6722 57.7917 88.1388 56.4588 85.7573 55.616C83.8822 54.9524 83.6723 54.813 84.528 54.8001C87.7954 54.7511 91.2041 56.9435 92.553 59.9615C93.3879 61.8297 93.4099 62.0131 93.3591 66.7001L93.3069 71.5183L94.8251 71.9033C97.7263 72.639 99.3409 73.7534 104.979 78.9119C106.662 80.4513 108.609 81.8249 110.688 82.9377C112.423 83.8666 114.602 85.1907 115.531 85.8801C118.659 88.203 120.478 88.5438 124.708 87.5993C128.983 86.6447 128.712 86.6192 127.468 87.8576C126.864 88.4587 125.546 89.2969 124.538 89.7202C123.531 90.1435 122.706 90.6037 122.706 90.7429C122.706 90.8821 123.247 91.2638 123.908 91.5913C125.418 92.3391 125.573 93.2665 124.133 92.9335C123.596 92.8092 122.462 92.5782 121.612 92.4202C120.763 92.2621 119.343 91.6854 118.458 91.1385C117.572 90.5916 115.833 89.7446 114.594 89.2562C113.354 88.7678 110.583 87.3262 108.434 86.0526C103.277 82.9949 97.4875 79.8726 96.9758 79.8726C96.403 79.8726 96.4475 80.2227 97.4633 83.7067C98.698 87.9413 99.0464 90.803 98.9209 95.6778C98.8211 99.5564 98.7527 99.9652 97.9306 101.601C97.4449 102.568 96.5597 103.783 95.9636 104.302C93.0458 106.841 90.1373 107.05 83.9927 105.164C81.787 104.487 79.5561 103.979 79.0351 104.034C78.1163 104.132 78.0923 104.175 78.238 105.456C78.4741 107.531 78.4136 113.865 78.1398 115.73L77.8915 117.422L80.243 118.5C81.5364 119.093 84.4876 120.36 86.8011 121.317C95.7567 125.018 103.979 129.222 104.969 130.605C105.776 131.732 105.747 132.884 104.897 133.496C104.322 133.91 100.449 135 99.5531 135C99.3997 135 99.7466 134.32 100.324 133.489ZM74.2207 115.936C74.1372 115.619 73.4629 112.759 72.7223 109.582C71.9816 106.405 71.109 103.125 70.7832 102.293C70.2302 100.882 70.0743 100.745 68.4431 100.235L66.6956 99.6892L65.0303 101.125C63.063 102.821 59.182 105.585 55.9287 107.606C54.648 108.402 53.6002 109.135 53.6004 109.235C53.6006 109.335 56.4737 110.373 59.9852 111.541C63.4967 112.709 68.0598 114.295 70.1255 115.064C74.523 116.703 74.416 116.68 74.2207 115.936ZM57.8126 98.8768C59.5801 96.9831 61.8905 94.8143 62.9468 94.0571L64.8674 92.6803L70.8766 92.9027C74.1817 93.0249 79.1802 93.2505 81.9843 93.404C85.157 93.5776 87.285 93.5641 87.618 93.3683C88.733 92.7127 88.2592 91.4009 85.742 88.1737C82.7995 84.4012 82.7449 84.2919 82.7449 82.1693C82.7449 80.5433 82.7111 80.4705 82.0417 80.6551C80.9609 80.9531 75.2513 82.1205 73.7121 82.3582C70.8239 82.8041 63.8419 80.7273 58.6656 77.8825C57.3855 77.179 54.8019 74.7113 54.8019 74.1921C54.8019 73.7318 55.4357 73.9112 56.2276 74.5956C56.6507 74.9612 57.0542 75.1975 57.1242 75.1206C57.1941 75.0437 56.8381 73.8999 56.3329 72.5789C55.8277 71.2578 55.4677 70.1183 55.5331 70.0465C55.8226 69.7284 57.0106 70.8134 59.0871 73.2927L61.3261 75.966L65.5005 77.1068C70.0498 78.3499 71.7657 78.3956 74.9678 77.3589C76.4998 76.8629 82.3192 73.8603 82.8361 73.2992C82.9689 73.155 81.6845 72.9519 79.9818 72.8479C72.6833 72.4019 65.8075 68.8333 62.2569 63.6487C60.4485 61.0081 58.8129 57.2997 58.215 54.4843C57.7577 52.3308 57.7644 45.8861 58.2261 43.8912C58.3312 43.4373 58.0829 44.078 57.6745 45.3149C56.7463 48.1263 56.3043 51.5413 56.3043 55.9021C56.3043 59.2424 56.2935 59.2941 55.3845 60.2509C54.2095 61.4876 51.7494 65.6949 50.7372 68.1985C48.8301 72.9161 47.636 80.1286 48.0394 84.494C48.4588 89.0325 49.8865 94.1741 51.706 97.6982C52.9642 100.135 54.2524 102.32 54.4315 102.32C54.5237 102.32 56.0451 100.77 57.8126 98.8768ZM81.2426 63.0235C82.1515 62.675 82.5571 62.4529 82.144 62.53C76.952 63.4995 73.3158 62.5221 69.9183 59.2439C68.1751 57.5619 65.9352 54.0593 64.9687 51.5042C64.2727 49.6641 64.4293 48.8998 65.2394 50.1832C66.1695 51.6567 68.4141 54.142 69.8891 55.3316C71.6634 56.7625 73.7229 57.655 75.8725 57.9246L77.4868 58.127L75.7011 57.292C73.1242 56.0871 70.8188 54.2334 69.5211 52.323C65.3499 46.1823 65.1428 39.9671 68.9128 34.0692C70.6629 31.3312 72.3345 29.6907 75.1551 27.943C77.5943 26.4315 76.4962 26.6677 73.7236 28.2508C67.5673 31.7662 63.3459 38.4574 62.2698 46.4062C61.656 50.9409 62.8182 54.6771 65.9615 58.2735C67.799 60.3758 70.8818 62.2769 73.9664 63.2098C76.0766 63.8481 79.3081 63.7653 81.2426 63.0235ZM62.0471 133.158C47.8998 130.894 35.4966 124.103 24.8177 112.771C22.9514 110.791 21.3473 109.255 21.253 109.359C21.0341 109.6 21.9749 111.293 24.4032 115.029C28.3945 121.169 33.04 126.545 38.0182 130.785C39.318 131.892 40.3362 132.847 40.281 132.908C40.1007 133.106 36.395 131.344 33.0652 129.477C26.6926 125.903 21.4985 121.602 16.3281 115.618C8.471 106.525 2.94035 93.9406 0.676703 80.006C0.0877075 76.3801 -0.0128177 74.6658 0.00121389 68.484C0.020143 60.1166 0.54761 56.0096 2.37304 50.0154C10.6489 22.8393 33.0976 3.57778 60.2735 0.335493C64.0226 -0.111831 72.3224 -0.111831 76.0715 0.335493C89.0692 1.88622 100.567 7.10183 112.064 16.6632C121.059 24.1431 128.478 35.5701 132.129 47.5697C133.81 53.0944 135.054 60.7999 134.998 65.348C134.977 67.041 134.94 66.9407 134.438 63.8625C131.764 47.4573 125.543 34.8216 115.946 26.3028C105.094 16.6708 92.1307 11.3578 77.7873 10.6641C68.0703 10.1941 58.8545 12.4028 49.5439 17.433C37.0493 24.1833 28.1168 33.9555 22.4923 47.0272C15.7318 62.7391 15.6414 78.185 22.2211 93.3539C25.3078 100.47 29.0752 106.078 35.0103 112.391C43.0334 120.924 53.4402 127.953 64.8674 132.557C67.4991 133.617 67.5354 133.646 66.2195 133.628C65.4758 133.617 63.5983 133.406 62.0471 133.158ZM122.602 67.4096C122.524 67.2726 122.817 65.5271 123.251 63.5309C123.941 60.3626 124.042 59.1883 124.05 54.2896C124.057 49.4025 123.969 48.3368 123.368 46.037C122.479 42.6384 121.486 39.5491 121.112 39.0144C120.95 38.783 120.915 38.4869 121.034 38.3562C121.629 37.7026 124.993 43.9594 126.276 48.1059C128.307 54.6714 127.632 62.2506 124.632 66.5721C123.932 67.5802 122.93 67.9935 122.602 67.4096Z" fill="url(#paint0_linear_93_12)" style="mix-blend-mode:darken"/>
</g>
<defs>
<filter id="filter0_d_93_12" x="0" y="0" width="152" height="151" filterUnits="userSpaceOnUse" color-interpolation-filters="sRGB">
<feFlood flood-opacity="0" result="BackgroundImageFix"/>
<feColorMatrix in="SourceAlpha" type="matrix" values="0 0 0 0 0 0 0 0 0 0 0 0 0 0 0 0 0 0 127 0" result="hardAlpha"/>
<feOffset dx="9" dy="8"/>
<feGaussianBlur stdDeviation="4"/>
<feComposite in2="hardAlpha" operator="out"/>
<feColorMatrix type="matrix" values="0 0 0 0 0 0 0 0 0 0 0 0 0 0 0 0 0 0 0.25 0"/>
<feBlend mode="normal" in2="BackgroundImageFix" result="effect1_dropShadow_93_12"/>
<feBlend mode="normal" in="SourceGraphic" in2="effect1_dropShadow_93_12" result="shape"/>
</filter>
<linearGradient id="paint0_linear_93_12" x1="82.4032" y1="0.3342" x2="52.5968" y2="134.666" gradientUnits="userSpaceOnUse">
<stop offset="0.08" stop-color="#02071C"/>
<stop offset="1"/>
</linearGradient>
</defs>
</svg>
