<?xml version="1.0" encoding="UTF-8" standalone="no"?>
<!-- Created with Inkscape (http://www.inkscape.org/) -->

<svg
   version="1.1"
   id="svg1"
   width="449.30829"
   height="408.9617"
   viewBox="0 0 449.30829 408.9617"
   sodipodi:docname="logo.svg"
   inkscape:export-filename="white_logo.svg"
   inkscape:export-xdpi="96"
   inkscape:export-ydpi="96"
   inkscape:version="1.4 (86a8ad7, 2024-10-11)"
   xml:space="preserve"
   xmlns:inkscape="http://www.inkscape.org/namespaces/inkscape"
   xmlns:sodipodi="http://sodipodi.sourceforge.net/DTD/sodipodi-0.dtd"
   xmlns="http://www.w3.org/2000/svg"
   xmlns:svg="http://www.w3.org/2000/svg"><defs
     id="defs1" /><sodipodi:namedview
     id="namedview1"
     pagecolor="#ffffff"
     bordercolor="#000000"
     borderopacity="0.25"
     inkscape:showpageshadow="2"
     inkscape:pageopacity="0.0"
     inkscape:pagecheckerboard="0"
     inkscape:deskcolor="#d1d1d1"
     showgrid="false"
     showguides="true"
     inkscape:zoom="0.35125788"
     inkscape:cx="-93.948072"
     inkscape:cy="-169.39122"
     inkscape:window-width="1366"
     inkscape:window-height="705"
     inkscape:window-x="-8"
     inkscape:window-y="-8"
     inkscape:window-maximized="1"
     inkscape:current-layer="g1"
     inkscape:export-bgcolor="#00000000"><inkscape:page
       x="0"
       y="0"
       width="449.30829"
       height="408.9617"
       id="page1"
       margin="0"
       bleed="0" /></sodipodi:namedview><g
     inkscape:groupmode="layer"
     inkscape:label="Image"
     id="g1"
     transform="translate(-1590.4992,2825.2239)"><g
       id="g67"
       transform="translate(19.958411,26.11093)"><g
         id="g2"
         style="fill:#ffffff;fill-opacity:1"
         transform="translate(0,-478.28109)"><path
           style="fill:#ffffff;fill-opacity:1"
           d="m 1904.4397,-1968.6686 c 1.9214,-2.5171 3.4934,-4.9314 3.4934,-5.3651 0,-2.0375 -4.7556,-6.4113 -10.8252,-9.9562 -22.0129,-12.8562 -94.145,-37.8207 -155.1748,-53.7049 l -26.5,-6.8972 10.24,-0.5 10.2399,-0.5 3.9726,-4.8135 3.9725,-4.8134 -3.7125,-3.1421 c -2.0419,-1.7281 -6.7062,-5.9746 -10.3652,-9.4365 -3.6591,-3.462 -7.1562,-6.2945 -7.7715,-6.2945 -0.6153,0 -1.622,1.1047 -2.2371,2.4549 -0.9004,1.9761 -0.6784,3.8234 1.1384,9.4739 2.5246,7.8513 2.2696,9.7202 -1.4537,10.6547 -5.9227,1.4865 -13.7081,-5.3959 -21.878,-19.3405 -14.4239,-24.619 -20.0427,-45.3096 -20.0257,-73.743 0.011,-17.4375 1.0105,-24.5513 5.1927,-36.9395 2.5986,-7.6972 0.8949,-5.9287 -4.351,4.5164 -9.0715,18.0624 -12.7574,34.8245 -12.7371,57.9231 0.023,25.8292 6.9926,53.6663 16.6812,66.622 3.6583,4.892 4.0495,5.127 8.71,5.232 8.105,0.1826 23.3573,4.5469 67.2931,19.2552 92.5125,30.9704 128.4626,44.6082 127.3132,48.2969 -0.6624,2.1258 -7.2582,4.5908 -12.2881,4.5924 -12.018,0 -20.4725,-3.0125 -41.9337,-14.96 -7.53,-4.192 -14.4276,-7.0627 -23.5,-9.7805 -0.825,-0.2471 0.4649,0.7224 2.8663,2.1544 12.1158,7.2251 14.4551,11.0626 9.548,15.6633 -2.1939,2.0569 -3.52,2.4083 -8.75,2.3184 -8.0441,-0.1382 -19.8839,-3.5042 -31.4642,-8.945 -9.5996,-4.5103 -20.314,-11.5566 -40.2001,-26.4376 -14.9318,-11.1737 -18.0281,-13.3167 -18.5239,-12.8209 -0.2248,0.2248 2.0511,3.6786 5.0576,7.675 3.0065,3.9965 5.4663,7.6866 5.4663,8.2004 0,1.8581 -4.9193,0.8696 -10.635,-2.137 -15.6927,-8.2548 -34.8198,-25.5034 -46.5806,-42.0058 -35.8016,-50.236 -41.31,-116.0826 -14.2568,-170.4232 22.6422,-45.4802 70.503,-80.1281 127.413,-92.2381 11.3971,-2.4252 14.5491,-2.6723 34.0594,-2.6697 18.538,0 22.93,0.3126 31.8796,2.2507 32.0263,6.9357 57.7779,19.816 76.2176,38.1222 11.5753,11.4915 21.9578,27.2983 25.8824,39.4046 2.9067,8.9661 4.2266,-5.3185 1.4696,-15.9034 -0.8529,-3.2747 -2.6529,-7.926 -4,-10.3361 -1.347,-2.4101 -2.4492,-4.6346 -2.4492,-4.9432 0,-1.5212 6.7251,6.1471 11.0564,12.6071 7.0261,10.4792 9.0358,17.6954 9.6658,34.7059 0.7502,20.2555 -2.3106,34.3944 -9.9688,46.0489 l -3.2534,4.9511 -0.2382,-4.5 c -1.4272,-26.9559 -5.7961,-43.1152 -16.4841,-60.9708 -3.104,-5.1855 -8.757,-12.0292 -9.9364,-12.0292 -0.5636,0 0.5926,2.9426 2.5695,6.539 5.1603,9.3882 7.2963,16.5242 8.6166,28.7867 1.1197,10.3995 0.8251,15.6743 -0.8755,15.6743 -0.4455,0 -1.8913,-2.3086 -3.2129,-5.1302 -2.7356,-5.8406 -13.5922,-16.4387 -22.1245,-21.5976 -8.8364,-5.3428 -25.6415,-11.1139 -39.05,-13.4104 -15.2123,-2.6054 -39.1041,-2.2888 -44.6749,0.5919 -1.8015,0.9316 -3.5032,1.466 -3.7817,1.1876 -1.1278,-1.1279 5.3715,-11.0006 10.8453,-16.4745 10.1903,-10.1902 20.3909,-13.7326 37.2904,-12.9496 7.3408,0.3401 9.2463,0.2041 7.0564,-0.5037 -1.65,-0.5333 -8.175,-1.0244 -14.5,-1.0914 -9.566,-0.1013 -12.5931,0.2581 -18,2.1371 -19.7123,6.8505 -30.7716,19.0011 -31.7939,34.9316 -0.2752,4.2888 0.047,9.1412 0.7809,11.7629 2.8169,10.0607 13.3608,17.2603 29.2216,19.9531 9.8954,1.68 11.3887,2.3312 17.0262,7.4243 3.7689,3.405 4.0039,3.4881 3.3012,1.1674 -1.4805,-4.8892 -6.584,-8.927 -14.51,-11.4803 -6.2408,-2.0103 -6.9395,-2.4324 -4.0916,-2.4713 10.8746,-0.1485 22.2197,6.4929 26.709,15.6354 2.7789,5.6594 2.8519,6.215 2.6829,20.4136 l -0.1737,14.5959 5.0527,1.1663 c 9.656,2.2288 15.0296,5.6048 33.7947,21.2317 5.5999,4.6633 12.0826,8.8243 19,12.1952 5.775,2.8142 13.0282,6.8254 16.1182,8.9137 10.4122,7.0371 16.4666,8.0695 30.5439,5.2083 14.2288,-2.892 13.3245,-2.9691 9.1849,0.7825 -2.0092,1.8208 -6.3967,4.3598 -9.75,5.6422 -3.3533,1.2824 -6.097,2.6765 -6.097,3.0981 0,0.4216 1.8,1.5782 4,2.5702 5.0237,2.2654 5.542,5.0747 0.75,4.0658 -1.7875,-0.3764 -5.5633,-1.0761 -8.3907,-1.5548 -2.8274,-0.4788 -7.5524,-2.226 -10.5,-3.8827 -2.9476,-1.6567 -8.7343,-4.2227 -12.8593,-5.7021 -4.125,-1.4795 -13.35,-5.8467 -20.5,-9.7048 -17.1663,-9.263 -36.4336,-18.7214 -38.1366,-18.7214 -1.9064,0 -1.7582,1.0605 1.6226,11.6149 4.1092,12.828 5.2689,21.4972 4.8513,36.2645 -0.3323,11.7496 -0.5598,12.9881 -3.2961,17.9442 -1.6165,2.9279 -4.5624,6.6092 -6.5464,8.1806 -9.7111,7.6913 -19.3913,8.3261 -39.8419,2.6125 -7.3409,-2.0509 -14.7659,-3.5911 -16.5,-3.4228 -3.0579,0.2969 -3.1378,0.4266 -2.6529,4.3061 0.786,6.2876 0.5846,25.4756 -0.3266,31.1248 l -0.8266,5.1248 7.8266,3.2657 c 4.3046,1.7961 14.1266,5.6358 21.8266,8.5326 29.8059,11.2131 57.1713,23.9475 60.468,28.1385 2.6844,3.4128 2.5887,6.9028 -0.2404,8.7565 -1.9149,1.2546 -14.8043,4.5571 -17.7863,4.5571 -0.5105,0 0.644,-2.0594 2.5653,-4.5766 z m -86.8769,-53.1734 c -0.2778,-0.9625 -2.522,-9.625 -4.9871,-19.25 -2.4651,-9.625 -5.3693,-19.5609 -6.4538,-22.0798 -1.8405,-4.2747 -2.3591,-4.6899 -7.788,-6.2343 l -5.8161,-1.6546 -5.5424,4.3497 c -6.5477,5.1387 -19.4646,13.5108 -30.2923,19.6342 -4.2625,2.4105 -7.7495,4.6307 -7.749,4.9338 6e-4,0.3031 9.5631,3.4466 21.25,6.9857 11.687,3.5391 26.874,8.3421 33.749,10.6734 14.636,4.9631 14.2797,4.894 13.6297,2.6419 z m -54.6095,-51.6798 c 5.8825,-5.7365 13.5719,-12.3067 17.0876,-14.6005 l 6.3922,-4.1706 20,0.6735 c 11,0.3704 27.636,1.0537 36.9688,1.5185 10.5594,0.5259 17.6417,0.485 18.75,-0.1082 3.7108,-1.9859 2.134,-5.9598 -6.2437,-15.736 -9.7934,-11.4283 -9.9751,-11.7595 -9.9751,-18.1895 0,-4.9257 -0.1124,-5.146 -2.3404,-4.5868 -3.5971,0.9028 -22.5999,4.4392 -27.7225,5.1592 -9.6128,1.3509 -32.8502,-4.9405 -50.078,-13.5584 -4.2606,-2.1313 -12.8591,-9.6067 -12.8591,-11.1796 0,-1.3943 2.1093,-0.8509 4.745,1.2222 1.4082,1.1077 2.7509,1.8235 2.9839,1.5905 0.2329,-0.2329 -0.9522,-3.6978 -2.6336,-7.6997 -1.6815,-4.0019 -2.8793,-7.4541 -2.6619,-7.6715 0.9637,-0.9637 4.9174,2.3233 11.8284,9.8339 l 7.452,8.0986 13.8931,3.4556 c 15.141,3.766 20.852,3.9044 31.5092,0.7638 5.0989,-1.5026 24.4671,-10.5985 26.1876,-12.2984 0.442,-0.4367 -3.833,-1.052 -9.5,-1.3672 -24.2906,-1.3511 -47.1748,-12.1614 -58.9921,-27.8673 -6.0187,-7.9992 -11.4622,-19.2333 -13.4522,-27.7622 -1.5221,-6.5236 -1.4998,-26.0469 0.037,-32.0901 0.3496,-1.375 -0.4765,0.5659 -1.8358,4.313 -3.0893,8.5165 -4.5603,18.8618 -4.5603,32.0723 0,10.1188 -0.036,10.2754 -3.0615,13.1737 -3.9107,3.7466 -12.0983,16.4917 -15.467,24.0762 -6.3475,14.2913 -10.3216,36.1404 -8.979,49.3648 1.3959,13.7486 6.1477,29.3241 12.2032,40 4.1875,7.3827 8.4751,14 9.071,14 0.3069,0 5.371,-4.6934 11.2535,-10.4298 z m 77.9798,-108.6121 c 3.025,-1.0558 4.375,-1.7285 3,-1.4948 -17.28,2.937 -29.382,-0.024 -40.6897,-9.9549 -5.8016,-5.0954 -13.2563,-15.7056 -16.4732,-23.4461 -2.3165,-5.5743 -1.7953,-7.8896 0.9009,-4.0019 3.0957,4.4637 10.5662,11.9926 15.4753,15.5962 5.9053,4.3349 12.7597,7.0386 19.9139,7.8552 l 5.3728,0.6133 -5.9433,-2.5295 c -8.5762,-3.65 -16.2491,-9.2654 -20.5682,-15.0528 -13.8826,-18.6023 -14.5721,-37.4305 -2.0248,-55.2971 5.8249,-8.2944 11.3883,-13.2641 20.7758,-18.5586 8.1183,-4.5787 4.4634,-3.8631 -4.7642,0.9328 -20.4897,10.6492 -34.5392,30.9192 -38.1206,54.9989 -2.0431,13.737 1.8252,25.0554 12.2868,35.95 6.1156,6.3688 16.3756,12.1277 26.6418,14.9539 7.0233,1.9335 17.7782,1.6827 24.2167,-0.5646 z m -63.8866,212.4603 c -47.0851,-6.8557 -88.3657,-27.4304 -123.9071,-61.7566 -6.2116,-5.9992 -11.5504,-10.651 -11.8641,-10.3373 -0.7286,0.7287 2.4026,5.8584 10.4843,17.1755 13.2839,18.6021 28.7451,34.8881 45.3136,47.7311 4.326,3.3532 7.7149,6.2473 7.531,6.4312 -0.6,0.6 -12.9332,-4.7382 -24.0154,-10.3947 -21.2095,-10.8257 -38.4964,-23.854 -55.7048,-41.982 -26.15,-27.5474 -44.5571,-65.669 -52.091,-107.8817 -1.9603,-10.984 -2.2949,-16.1771 -2.2482,-34.9039 0.063,-25.3478 1.8185,-37.7893 7.8939,-55.9478 27.5439,-82.3258 102.258,-140.6756 192.705,-150.4976 12.4777,-1.3551 40.1012,-1.3551 52.5788,0 43.2593,4.6977 81.5247,20.4975 119.7921,49.4621 29.937,22.6594 54.6271,57.2758 66.7791,93.6268 5.5949,16.7361 9.7338,40.0788 9.5494,53.8565 -0.069,5.1287 -0.1945,4.8248 -1.8642,-4.5 -8.8986,-49.697 -29.6037,-87.975 -61.5458,-113.7813 -36.1165,-29.1788 -79.2622,-45.2736 -127,-47.3753 -32.3402,-1.4238 -63.0123,5.2671 -94,20.5054 -41.5844,20.4492 -71.3137,50.0524 -90.0332,89.6512 -22.5004,47.5967 -22.8014,94.3877 -0.9028,140.3395 10.2734,21.5577 22.8119,38.5454 42.5651,57.669 26.7028,25.8516 61.3386,47.1451 99.3709,61.0914 8.7589,3.2119 8.8795,3.2987 4.5,3.2428 -2.475,-0.032 -8.7239,-0.6726 -13.8866,-1.4243 z m 201.5381,-199.173 c -0.2566,-0.4152 0.7166,-5.7027 2.1626,-11.75 2.2951,-9.5979 2.6328,-13.1553 2.6576,-27.9951 0.025,-14.8045 -0.2686,-18.0331 -2.2707,-25 -2.9588,-10.2954 -6.2609,-19.6542 -7.5064,-21.2741 -0.5387,-0.7008 -0.6558,-1.5979 -0.2601,-1.9936 1.9799,-1.98 13.1748,16.9741 17.4445,29.5352 6.7605,19.8891 4.5156,42.849 -5.4697,55.9403 -2.3293,3.054 -5.6646,4.3062 -6.7578,2.5373 z"
           id="path1"
           sodipodi:nodetypes="sssscccccssssssscssssssscsssssssssssssscssssssssscssssssssssssssssssssssssscssssssssssssssssssssssscsssssssssscsssssssscsssssssssssssscssssssssssssssssssssssscssssssssssssssssssssssssssssssssssssssssssss"
           inkscape:export-filename="path1.svg"
           inkscape:export-xdpi="96"
           inkscape:export-ydpi="96" /></g></g></g></svg>
